<svg height="46" viewbox="0 0 55 46" width="55" xmlns="http://www.w3.org/2000/svg"><g fill="none" fill-rule="evenodd"><g fill="#fc0" transform="translate(21)"><path d="m10.4786986 6.49218377v-5.55374783c0-.51828386.420152-.93843594.9384359-.93843594s.9384359.42015208.9384359.93843594v5.57051914c-.3440725-.03035549-.6924108-.04585594-1.0443695-.04585594-.2798986 0-.5575076.00980308-.8325023.02908463zm7.1384116 1.80826843 3.2340285-4.45125836c.3046396-.41930045.891509-.51225143 1.3108095-.20761182.4193004.30463961.5122514.89150898.2076118 1.31080943l-3.2560538 4.48157349c-.4668347-.4161123-.967148-.79546456-1.496396-1.13351274zm4.5971105 5.5570877 5.2134326-1.6939469c.4929172-.1601585 1.0223397.1095957 1.1824982.6025129.1601586.4929173-.1095957 1.0223398-.6025129 1.1824983l-5.2420922 1.703259c-.1364773-.617814-.3216638-1.217333-.5513257-1.7943233zm.4808738 7.1777269 5.4269586 1.7633258c.4929172.1601585.7626714.689581.6025129 1.1824982-.1601585.4929173-.689581.7626715-1.1824983.602513l-5.4455427-1.7693641c.244973-.5710511.4459196-1.1654655.5985695-1.7789729zm-18.90588102-11.84337429-3.08017782-4.23950106c-.30463961-.41930045-.21168863-1.00616982.20761182-1.31080943s1.00616982-.21168863 1.31080943.20761182l3.09286516 4.25696369c-.53986258.32131454-1.05174198.68473608-1.53110859 1.08573498z" fill-rule="nonzero"></path><path d="m19.007085 23.5555495c1.1281313-1.5622918 1.7929142-3.4812865 1.7929142-5.5555495 0-5.2467051-4.2532948-9.5-9.5-9.5-1.84175926 0-3.56110738.52410454-5.01703726 1.43130655.05719217-.00131853.11437289-.00197888.17153294-.00197888 4.00796412 0 7.37199442 3.15512773 7.86832202 7.25613643l.0786498.6498596c2.4013459.8777191 4.216117 3.060426 4.6056183 5.7202258z"></path></g><path d="m12.3499141 31.9980669c-3.9653846-.0925368-7.3499141-3.495856-7.3499141-7.727752 0-3.1605092 1.8601757-6.0672325 4.62869693-7.2334152l.82137627-.3472861.1720059-.9185616c.7392386-3.9239222 4.0054172-6.771052 7.762489-6.771052 2.1945241 0 4.3088433.97918249 5.8018155 2.6868439l.6735286.7706053.9537628-.2835828c.544041-.1623408 1.0958126-.2445387 1.6408199-.2445387 2.982552 0 5.5066611 2.3884244 5.8828103 5.4964344-.0945598-.0039094-.1895746-.0058827-.2850065-.0058827-.518816 0-1.039344.0600374-1.5528287.1780794-1.6247714-1.6545914-3.8395516-2.5979588-6.1428668-2.5979588-4.0599929 0-7.5727147 2.9008602-8.4878756 6.9188094-2.9380064 1.3468728-4.8687276 4.391037-4.8687276 7.6957986 0 .8272274.1225157 1.6273332.3499141 2.3834589zm25.7809205-6.9202023.7379209.3513961c1.9030161.9073486 3.1312445 2.8901049 3.1312445 5.0528032 0 3.0675005-2.6757511 5.5179361-5.634814 5.5179361h-.365186-15.623101c-.1688465.0049775-.2944795.0049775-.376899 0-3.2633356-.1970786-6-2.9702557-6-6.385392 0-2.6108555 1.5783309-5.0120617 3.9273792-5.97543l.6969253-.2868885.1459444-.7588117c.6272328-3.241501 3.3985359-5.5934778 6.5863543-5.5934778 1.8620205 0 3.6559883.8088899 4.9227526 2.2195667l.5714788.636587.8092532-.234264c.4616106-.1341077.9297804-.2020103 1.3922109-.2020103 2.6212591 0 4.825183 2.116864 5.0186823 4.8185392z" fill="#ddd"></path><g fill="#09f"><path d="m4.81750488 4.06738281c-.20497927 1.07920156-1.54955622 2.43413359-2.84683538 1.709437s-1.12421798-2.23534602-.39193415-3.26558934 3.42230225-2.82010397 3.42230225-2.82010397.02144655 3.29705475-.18353272 4.37625631z" transform="translate(30 39)"></path><path d="m4.95861387 4.03169562 1.65-1.636c.128-.13.131-.34 0-.47l-.048-.047c-.128-.132-.34-.132-.47-.003l-1.653 1.638-.55-2.26c-.043-.178-.225-.288-.405-.244l-.064.016c-.178.042-.291.227-.248.403l.566 2.306-2.307-.563c-.177-.043-.36.065-.405.245l-.014.064c-.047.181.067.361.245.403l2.254.551-1.647 1.634c-.13.131-.13.342-.003.473l.048.047c.131.131.34.131.471.003l1.651-1.642.555 2.264c.043.178.225.289.402.244l.064-.014c.181-.045.293-.225.247-.403l-.563-2.306 2.305.562c.177.045.359-.067.402-.244l.017-.064c.045-.177-.067-.36-.244-.404z" transform="translate(17 38)"></path></g></g></svg>