<svg height="37" viewbox="0 0 55 37" width="55" xmlns="http://www.w3.org/2000/svg"><g fill="#fc0" fill-rule="evenodd" transform="translate(10)"><path d="m16.6855454 6.49218377v-5.55374783c0-.51828386.4201521-.93843594.9384359-.93843594.5182839 0 .938436.42015208.938436.93843594v5.57051914c-.3440726-.03035549-.6924109-.04585594-1.0443695-.04585594-.2798986 0-.5575076.00980308-.8325024.02908463zm7.1384117 1.80826843 3.2340285-4.45125836c.3046396-.41930045.891509-.51225143 1.3108094-.20761182s.5122514.89150898.2076118 1.31080943l-3.2560537 4.48157349c-.4668348-.4161123-.9671481-.79546456-1.496396-1.13351274zm4.5971105 5.5570877 5.2134325-1.6939469c.4929173-.1601585 1.0223398.1095957 1.1824983.6025129.1601585.4929173-.1095957 1.0223398-.602513 1.1824983l-5.2420922 1.703259c-.1364773-.617814-.3216638-1.217333-.5513256-1.7943233zm.4808737 7.1777269 5.4269586 1.7633258c.4929172.1601585.7626715.689581.602513 1.1824982-.1601586.4929173-.6895811.7626715-1.1824983.602513l-5.4455428-1.7693641c.244973-.5710511.4459196-1.1654655.5985695-1.7789729zm-3.7607766 6.0743708 3.2636226 4.4919912c.3046396.4193004.2116886 1.0061698-.2076118 1.3108094-.4193005.3046396-1.0061698.2116887-1.3108095-.2076118l-3.2638811-4.492347c.536056-.3273128 1.0437938-.6964379 1.5186798-1.1028418zm-6.5787474 2.7685041v5.5705191c0 .5182839-.4201521.938436-.938436.938436-.5182838 0-.9384359-.4201521-.9384359-.938436v-5.5537478c.2749948.0192816.5526038.0290846.8325024.0290846.3519586 0 .7002969-.0155004 1.0443695-.0458559zm-7.1353219-1.657441-3.10720394 4.2766992c-.30463961.4193005-.89150898.5122515-1.31080943.2076118-.41930045-.3046396-.51225143-.8915089-.20761182-1.3108094l3.10546477-4.2743056c.47542012.4057597.98365122.7742053 1.52016042 1.100804zm-4.73868738-5.5111707-5.05972643 1.6440048c-.49291724.1601585-1.02233975-.1095958-1.18249827-.602513s.10959572-1.0223398.60251296-1.1824983l5.05856679-1.643628c.14668937.6150923.34182307 1.2113891.58114495 1.7846345zm-.55822327-7.3416981-4.96707618-1.6139009c-.49291724-.1601585-.76267148-.689581-.60251296-1.1824983.16015852-.4929172.68958103-.7626714 1.18249827-.6025129l4.98313058 1.6191173c-.24415225.5713699-.4442549 1.1660576-.59603971 1.7797948zm3.86587557-6.17593939-3.08017782-4.23950106c-.30463961-.41930045-.21168863-1.00616982.20761182-1.31080943s1.00616982-.21168863 1.31080943.20761182l3.09286515 4.25696369c-.5398626.32131454-1.051742.68473608-1.53110858 1.08573498z" fill-rule="nonzero"></path><path d="m17.5 27.6999998c5.2467051 0 9.5-4.2532949 9.5-9.5s-4.2532949-9.49999999-9.5-9.49999999-9.5 4.25329489-9.5 9.49999999 4.2532949 9.5 9.5 9.5z"></path></g></svg>