<svg height="54" viewbox="0 0 55 54" width="55" xmlns="http://www.w3.org/2000/svg"><g fill="none" fill-rule="evenodd"><g fill="#fc0" transform="translate(10)"><path d="m16.6855454 6.49218377v-5.55374783c0-.51828386.4201521-.93843594.9384359-.93843594.5182839 0 .938436.42015208.938436.93843594v5.57051914c-.3440726-.03035549-.6924109-.04585594-1.0443695-.04585594-.2798986 0-.5575076.00980308-.8325024.02908463zm7.1384117 1.80826843 3.2340285-4.45125836c.3046396-.41930045.891509-.51225143 1.3108094-.20761182s.5122514.89150898.2076118 1.31080943l-3.2560537 4.48157349c-.4668348-.4161123-.9671481-.79546456-1.496396-1.13351274zm4.5971105 5.5570877 5.2134325-1.6939469c.4929173-.1601585 1.0223398.1095957 1.1824983.6025129.1601585.4929173-.1095957 1.0223398-.602513 1.1824983l-5.2420922 1.703259c-.1364773-.617814-.3216638-1.217333-.5513256-1.7943233zm.8982145 7.3133292 5.0096178 1.6277235c.4929172.1601585.7626715.689581.602513 1.1824982-.1601586.4929173-.6895811.7626715-1.1824983.602513l-3.5915212-1.166956c-.156097-.8049975-.4435923-1.5616107-.8381113-2.2457787zm-22.63087408 1.5386609-5.05972643 1.6440048c-.49291724.1601585-1.02233975-.1095958-1.18249827-.602513s.10959572-1.0223398.60251296-1.1824983l5.05856679-1.643628c.14668937.6150923.34182307 1.2113891.58114495 1.7846345zm-.55822327-7.3416981-4.96707618-1.6139009c-.49291724-.1601585-.76267148-.689581-.60251296-1.1824983.16015852-.4929172.68958103-.7626714 1.18249827-.6025129l4.98313058 1.6191173c-.24415225.5713699-.4442549 1.1660576-.59603971 1.7797948zm3.86587557-6.17593939-3.08017782-4.23950106c-.30463961-.41930045-.21168863-1.00616982.20761182-1.31080943s1.00616982-.21168863 1.31080943.20761182l3.09286515 4.25696369c-.5398626.32131454-1.051742.68473608-1.53110858 1.08573498z" fill-rule="nonzero"></path><path d="m8.09316801 19.3357278c-.06141095-.4364233-.09316801-.8823669-.09316801-1.3357278 0-5.2467051 4.2532949-9.5 9.5-9.5s9.5 4.2532949 9.5 9.5c0 .1762113-.0047976.3513021-.0142692.5251489-1.0848231-.7003014-2.3663218-1.1052695-3.7334314-1.1052695-.5188159 0-1.0393439.0600374-1.5528287.1780794-1.6247714-1.6545914-3.8395516-2.5979588-6.1428667-2.5979588-3.1223502 0-5.92102083 1.7156925-7.46343599 4.3357278z"></path></g><path d="m38.1308346 25.0778646-.0598536-.839446c-.1934993-2.7016752-2.3974232-4.8185392-5.0186823-4.8185392-.4624305 0-.9306003.0679026-1.3922109.2020103l-.8092532.234264-.5714788-.636587c-1.2667643-1.4106768-3.0607321-2.2195667-4.9227526-2.2195667-3.1878184 0-5.9591215 2.3519768-6.5863543 5.5934778l-.1459444.7588117-.6969253.2868885c-2.3490483.9633683-3.9273792 3.3645745-3.9273792 5.97543 0 3.4149161 2.7369422 6.1879954 6 6.385392.0825581.0049943.2081911.0049943.376899 0h15.988287c.0660819.0004755.1110199.0004755.134814 0 2.9161709-.0582756 5.5-2.487525 5.5-5.5179361 0-2.1626983-1.2282284-4.1454546-3.1312445-5.0528032z" fill="#ddd"></path><g fill="#09f"><path d="m4.81750488 4.06738281c-.20497927 1.07920156-1.54955622 2.43413359-2.84683538 1.709437s-1.12421798-2.23534602-.39193415-3.26558934 3.42230225-2.82010397 3.42230225-2.82010397.02144655 3.29705475-.18353272 4.37625631z" transform="translate(17 39)"></path><path d="m4.81750488 4.06738281c-.20497927 1.07920156-1.54955622 2.43413359-2.84683538 1.709437s-1.12421798-2.23534602-.39193415-3.26558934 3.42230225-2.82010397 3.42230225-2.82010397.02144655 3.29705475-.18353272 4.37625631z" transform="translate(30 39)"></path><path d="m4.81750488 4.06738281c-.20497927 1.07920156-1.54955622 2.43413359-2.84683538 1.709437s-1.12421798-2.23534602-.39193415-3.26558934 3.42230225-2.82010397 3.42230225-2.82010397.02144655 3.29705475-.18353272 4.37625631z" transform="translate(12 47)"></path><path d="m4.81750488 4.06738281c-.20497927 1.07920156-1.54955622 2.43413359-2.84683538 1.709437s-1.12421798-2.23534602-.39193415-3.26558934 3.42230225-2.82010397 3.42230225-2.82010397.02144655 3.29705475-.18353272 4.37625631z" transform="translate(25 47)"></path></g></g></svg>