<svg height="55" viewbox="0 0 55 55" width="55" xmlns="http://www.w3.org/2000/svg"><g fill="none" fill-rule="evenodd"><path d="m47.0012324 23c0 2.8010266-1.1516228 5.3330774-3.0072158 7.1484995-.1160834-2.6811023-1.62491-5.1196885-3.9564501-6.3692776-.3179647-2.7606883-2.1665386-5.0416961-4.6348674-5.9438982l-.0786498-.6498596c-.4963276-4.1010087-3.8603579-7.25613643-7.868322-7.25613643-.6463494 0-1.2953414.08443413-1.933661.25019573-1.0040845-1.09139412-2.219879-1.93147294-3.5501994-2.47327607 1.7370338-2.2540443 4.4636096-3.70624733 7.5293655-3.70624733 5.1460278 0 9.336404 4.09163076 9.4953248 9.1990884 4.5668097.9247332 8.0046752 4.9613442 8.0046752 9.8009116zm-42 1.2703149c0-.0865884-.0027729-.1841381 0-.2703149.09843905-3.0593105 1.93602481-5.8288675 4.62869693-6.9631003l.82137627-.3472861.1720059-.9185616c.7392386-3.9239222 4.0054172-6.771052 7.762489-6.771052 2.1945241 0 4.3088433.97918249 5.8018155 2.6868439l.6735286.7706053.9537628-.2835828c.544041-.1623408 1.0958126-.2445387 1.6408199-.2445387 2.982552 0 5.5066611 2.3884244 5.8828103 5.4964344-.0945598-.0039094-.1895746-.0058827-.2850065-.0058827-.518816 0-1.039344.0600374-1.5528287.1780794-1.6247714-1.6545914-3.8395516-2.5979588-6.1428668-2.5979588-4.0599929 0-7.5727147 2.9008602-8.4878756 6.9188094-2.9380064 1.3468728-4.8687276 4.391037-4.8687276 7.6957986 0 .8272274.1225157 1.6273332.3499141 2.3834589-3.9653846-.0925368-7.3499141-3.495856-7.3499141-7.727752zm33.1308346.8075497.7379209.3513961c1.9030161.9073486 3.1312445 2.8901049 3.1312445 5.0528032 0 3.0675005-2.6757511 5.5179361-5.634814 5.5179361h-.365186-15.623101c-.1683546.0050374-.2939876.0050374-.376899 0-3.2623492-.1982073-6-2.9710374-6-6.385392 0-2.6108555 1.5783309-5.0120617 3.9273792-5.97543l.6969253-.2868885.1459444-.7588117c.6272328-3.241501 3.3985359-5.5934778 6.5863543-5.5934778 1.8620205 0 3.6559883.8088899 4.9227526 2.2195667l.5714788.636587.8092532-.234264c.4616106-.1341077.9297804-.2020103 1.3922109-.2020103 2.6212591 0 4.825183 2.116864 5.0186823 4.8185392z" fill="#ddd"></path><path d="m0 0h50v55h-50z"></path><g fill="#09f" fill-rule="evenodd"><path d="m4.95861387 4.03169562 1.65-1.636c.128-.13.131-.34 0-.47l-.048-.047c-.128-.132-.34-.132-.47-.003l-1.653 1.638-.55-2.26c-.043-.178-.225-.288-.405-.244l-.064.016c-.178.042-.291.227-.248.403l.566 2.306-2.307-.563c-.177-.043-.36.065-.405.245l-.014.064c-.047.181.067.361.245.403l2.254.551-1.647 1.634c-.13.131-.13.342-.003.473l.048.047c.131.131.34.131.471.003l1.651-1.642.555 2.264c.043.178.225.289.402.244l.064-.014c.181-.045.293-.225.247-.403l-.563-2.306 2.305.562c.177.045.359-.067.402-.244l.017-.064c.045-.177-.067-.36-.244-.404z" transform="translate(31 38)"></path><path d="m4.95861387 4.03169562 1.65-1.636c.128-.13.131-.34 0-.47l-.048-.047c-.128-.132-.34-.132-.47-.003l-1.653 1.638-.55-2.26c-.043-.178-.225-.288-.405-.244l-.064.016c-.178.042-.291.227-.248.403l.566 2.306-2.307-.563c-.177-.043-.36.065-.405.245l-.014.064c-.047.181.067.361.245.403l2.254.551-1.647 1.634c-.13.131-.13.342-.003.473l.048.047c.131.131.34.131.471.003l1.651-1.642.555 2.264c.043.178.225.289.402.244l.064-.014c.181-.045.293-.225.247-.403l-.563-2.306 2.305.562c.177.045.359-.067.402-.244l.017-.064c.045-.177-.067-.36-.244-.404z" transform="translate(26 46)"></path><path d="m4.95861387 4.03169562 1.65-1.636c.128-.13.131-.34 0-.47l-.048-.047c-.128-.132-.34-.132-.47-.003l-1.653 1.638-.55-2.26c-.043-.178-.225-.288-.405-.244l-.064.016c-.178.042-.291.227-.248.403l.566 2.306-2.307-.563c-.177-.043-.36.065-.405.245l-.014.064c-.047.181.067.361.245.403l2.254.551-1.647 1.634c-.13.131-.13.342-.003.473l.048.047c.131.131.34.131.471.003l1.651-1.642.555 2.264c.043.178.225.289.402.244l.064-.014c.181-.045.293-.225.247-.403l-.563-2.306 2.305.562c.177.045.359-.067.402-.244l.017-.064c.045-.177-.067-.36-.244-.404z" transform="translate(22 38)"></path><path d="m4.95861387 4.03169562 1.65-1.636c.128-.13.131-.34 0-.47l-.048-.047c-.128-.132-.34-.132-.47-.003l-1.653 1.638-.55-2.26c-.043-.178-.225-.288-.405-.244l-.064.016c-.178.042-.291.227-.248.403l.566 2.306-2.307-.563c-.177-.043-.36.065-.405.245l-.014.064c-.047.181.067.361.245.403l2.254.551-1.647 1.634c-.13.131-.13.342-.003.473l.048.047c.131.131.34.131.471.003l1.651-1.642.555 2.264c.043.178.225.289.402.244l.064-.014c.181-.045.293-.225.247-.403l-.563-2.306 2.305.562c.177.045.359-.067.402-.244l.017-.064c.045-.177-.067-.36-.244-.404z" transform="translate(17 46)"></path><path d="m4.95861387 4.03169562 1.65-1.636c.128-.13.131-.34 0-.47l-.048-.047c-.128-.132-.34-.132-.47-.003l-1.653 1.638-.55-2.26c-.043-.178-.225-.288-.405-.244l-.064.016c-.178.042-.291.227-.248.403l.566 2.306-2.307-.563c-.177-.043-.36.065-.405.245l-.014.064c-.047.181.067.361.245.403l2.254.551-1.647 1.634c-.13.131-.13.342-.003.473l.048.047c.131.131.34.131.471.003l1.651-1.642.555 2.264c.043.178.225.289.402.244l.064-.014c.181-.045.293-.225.247-.403l-.563-2.306 2.305.562c.177.045.359-.067.402-.244l.017-.064c.045-.177-.067-.36-.244-.404z" transform="translate(13 38)"></path><path d="m4.95861387 4.03169562 1.65-1.636c.128-.13.131-.34 0-.47l-.048-.047c-.128-.132-.34-.132-.47-.003l-1.653 1.638-.55-2.26c-.043-.178-.225-.288-.405-.244l-.064.016c-.178.042-.291.227-.248.403l.566 2.306-2.307-.563c-.177-.043-.36.065-.405.245l-.014.064c-.047.181.067.361.245.403l2.254.551-1.647 1.634c-.13.131-.13.342-.003.473l.048.047c.131.131.34.131.471.003l1.651-1.642.555 2.264c.043.178.225.289.402.244l.064-.014c.181-.045.293-.225.247-.403l-.563-2.306 2.305.562c.177.045.359-.067.402-.244l.017-.064c.045-.177-.067-.36-.244-.404z" transform="translate(8 46)"></path></g></g></svg>